# xmcd
#
# Track frame offsets:
#	150
#	6009
#	24679
#	40019
#	55694
#	69594
#	83138
#	102317
#	112976
#	145068
#	155919
#	174743
#
# Disc length: 2591 seconds
#
# Revision: 1
# Processed by: cddbd v1.4PL0 Copyright (c) Steve Scherf et al.
# Submitted via: audiograbber 1.81.01
#
DISCID=980a1d0c
DTITLE=Bärengässlin - Der Lieb zu gefallen
DYEAR=1977
DGENRE=Ballad
TTITLE0=Eine Epistel insonderheit für Epistel für Anna Stina
TTITLE1=Eine Epistel die Jungfer Sophia betreffend
TTITLE2=Ein Lied auf den alten Noah und dessen Weib
TTITLE3=Eine Epistel für Vater Berg, da er die Violine strich
TTITLE4=Ein Lied auf den Branntweinbrenner Lundholm
TTITLE5=Ein abendliches Lied Fredmans
TTITLE6=Eine Elegie für Vater Movitz
TTITLE7=Ein Lied zu einem Nota bene
TTITLE8=Vater Movitz Überfahrt
TTITLE9=Eine Epistel für Jergen
TTITLE10=Eine Epistel für Vater Mollberg, wie er seine Harfe trachierte
TTITLE11=Ein Lied während einer Schmauserei
EXTD=
EXTT0=
EXTT1=
EXTT2=
EXTT3=
EXTT4=
EXTT5=
EXTT6=
EXTT7=
EXTT8=
EXTT9=
EXTT10=
EXTT11=
PLAYORDER=
